<svg width="21" height="21" viewBox="0 0 21 21" fill="none" xmlns="http://www.w3.org/2000/svg">
<path d="M20.1787 17.063H1.64213V14.4794C1.64213 13.5749 2.37803 12.839 3.28255 12.839H17.7181C18.6226 12.839 19.3585 13.5749 19.3585 14.4794C19.3585 14.9324 19.7258 15.2996 20.1787 15.2996C20.6317 15.2996 20.9989 14.9324 20.9989 14.4794C20.9989 13.3006 20.3737 12.2654 19.4378 11.6869C19.4327 11.5561 19.42 11.4265 19.3995 11.2986V0.820189C19.3995 0.367213 19.0323 0 18.5793 0C18.1263 0 17.7591 0.367213 17.7591 0.820189V2.70908C16.7587 2.52209 13.3442 1.92749 10.3773 1.92749C7.43985 1.92749 4.29375 2.50995 3.32352 2.70482V0.820189C3.32352 0.367213 2.95631 0 2.50333 0C2.05032 0 1.68314 0.367213 1.68314 0.820189V11.6163C0.680928 12.1784 0.00170898 13.2508 0.00170898 14.4794V17.8832C0.00170898 18.3362 0.368922 18.7034 0.821898 18.7034H1.64209V20.1798C1.64209 20.6328 2.0093 21 2.46228 21C2.91529 21 3.28247 20.6327 3.28247 20.1798V18.7034H17.718V20.1798C17.718 20.6328 18.0852 21 18.5382 21C18.9912 21 19.3584 20.6327 19.3584 20.1798V18.7034H20.1786C20.6316 18.7034 20.9988 18.3362 20.9988 17.8832C20.9989 17.4302 20.6317 17.063 20.1787 17.063ZM3.48906 11.1986C3.62642 10.8655 3.87457 10.5545 4.21996 10.2902C4.83675 9.81811 5.669 9.55816 6.56335 9.55816C7.45769 9.55816 8.28994 9.81811 8.90673 10.2902C9.25213 10.5545 9.50031 10.8655 9.63763 11.1986H3.48906ZM11.5271 11.1986C11.6644 10.8655 11.9126 10.5545 12.258 10.2902C12.8747 9.81811 13.707 9.55816 14.6013 9.55816C15.4957 9.55816 16.3279 9.81811 16.9447 10.2902C17.2901 10.5545 17.5383 10.8655 17.6756 11.1986H11.5271ZM3.32352 4.37866C3.34059 4.37608 3.35765 4.37309 3.37475 4.36935C3.41163 4.36135 7.09946 3.56791 10.3773 3.56791C13.6575 3.56791 17.6811 4.36414 17.7214 4.37218C17.734 4.37473 17.7465 4.37583 17.7591 4.37776V8.85499C16.883 8.24931 15.7712 7.91774 14.6013 7.91774C13.3486 7.91774 12.1623 8.29766 11.261 8.98747C11.0031 9.18479 10.7765 9.40111 10.5823 9.63252C10.3881 9.40111 10.1615 9.18479 9.90362 8.98747C9.00226 8.29762 7.81601 7.91774 6.56331 7.91774C5.3563 7.91774 4.21176 8.27133 3.32352 8.91413V4.37866Z" fill="#888888"/>
</svg>
