<svg width="18" height="16" viewBox="0 0 18 16" fill="none" xmlns="http://www.w3.org/2000/svg">
<path d="M17.7607 8.58454L13.6367 4.4609V0.981608C13.6367 0.529753 13.2704 0.163425 12.8185 0.163425C12.3667 0.163425 12.0003 0.529753 12.0003 0.981608V2.82465L9.57852 0.402989C9.25905 0.0835161 8.74098 0.083516 8.4215 0.403044L0.239951 8.5846C-0.0795767 8.90407 -0.0795767 9.42214 0.239951 9.74167C0.399715 9.90143 0.60906 9.98134 0.81846 9.98134C1.02786 9.98134 1.23726 9.90143 1.39697 9.74167L2.72761 8.41109V14.618C2.72761 15.0698 3.09394 15.4362 3.54579 15.4362H7.36398H10.6367H14.4549C14.9067 15.4362 15.2731 15.0698 15.2731 14.618V8.4112L16.6037 9.74172C16.9231 10.0612 17.4412 10.0611 17.7607 9.74167C18.0803 9.42209 18.0802 8.90407 17.7607 8.58454ZM8.18216 13.7998V10.5271H9.81852V13.7998H8.18216ZM13.6367 13.7998H11.4549V9.70889C11.4549 9.25703 11.0886 8.89071 10.6367 8.89071H7.36398C6.91212 8.89071 6.54579 9.25703 6.54579 9.70889V13.7998H4.36397V6.77472L9.00007 2.13868L13.6367 6.77499V13.7998Z" fill="#BBBBBB"/>
</svg>
