<svg width="16" height="16" viewBox="0 0 16 16" fill="none" xmlns="http://www.w3.org/2000/svg">
<path d="M15.1591 10.9197L13.5494 9.60088C12.5007 8.74173 10.8728 8.82304 9.91604 9.77971L9.85214 9.84361C9.69171 10.004 9.4304 10.0028 9.27224 9.84456L6.16216 6.73444C6.00516 6.57743 6.00206 6.32489 6.15336 6.16455C6.15612 6.16164 6.15891 6.15876 6.16175 6.15588L6.1532 6.16443C6.15604 6.1616 6.15888 6.15872 6.16171 6.15588C7.11314 5.19534 7.20421 3.55992 6.37079 2.50623L5.06525 0.855661C4.22608 -0.205312 2.7676 -0.287267 1.81099 0.669325L1.57118 0.909135C-0.12794 2.60823 -0.52837 5.67063 0.746085 7.70675C0.746085 7.70675 1.49631 9.44667 4.02815 11.9785C6.55998 14.5104 8.29989 15.2607 8.29989 15.2607C10.355 16.5041 13.3974 16.1358 15.0961 14.4371L15.3245 14.2087C16.2818 13.2514 16.2071 11.7783 15.1591 10.9197ZM14.168 13.0522L13.9396 13.2806C12.7733 14.4468 10.5578 14.7152 9.14653 13.8613L9.05051 13.8032L8.94747 13.7588C8.82097 13.7042 8.50389 13.5323 8.0245 13.2108C7.1731 12.6397 6.21702 11.8545 5.18462 10.8221C4.15222 9.78967 3.36699 8.83358 2.79596 7.98217C2.47443 7.50278 2.30248 7.18569 2.24797 7.0592L2.1986 6.9447L2.13244 6.83901C1.27438 5.46816 1.55106 3.24225 2.72766 2.06567L2.96747 1.82586C3.23339 1.55995 3.55132 1.57804 3.78254 1.87037L5.08809 3.52093C5.41 3.92791 5.36833 4.63645 4.9968 5.00801C4.20644 5.80759 4.21033 7.09569 5.00569 7.89101L8.11577 11.0011C8.91304 11.7984 10.2099 11.7989 11.0087 11.0002L11.0726 10.9363C11.4352 10.5737 12.1149 10.5401 12.5129 10.8661L14.1226 12.1849C14.4231 12.4311 14.4407 12.7795 14.168 13.0522Z" fill="white"/>
</svg>
